<svg width="1483" height="466" viewBox="0 0 1483 466" fill="none" xmlns="http://www.w3.org/2000/svg">
<path d="M110.286 420.764C110.286 429.807 114.389 436.339 122.595 440.358C126.28 442.033 130.383 443.54 134.904 444.88C139.594 446.22 144.283 447.894 148.972 449.904V465.981H0.256048V449.904C3.94046 447.727 7.79234 446.052 11.8117 444.88C15.9985 443.875 19.8504 442.619 23.3673 441.112C31.406 437.595 35.4254 430.812 35.4254 420.764V157.245C35.4254 148.369 31.4898 142.34 23.6185 139.158C20.2691 137.818 16.6684 136.729 12.8165 135.892C9.13212 134.887 5.69892 133.296 2.51694 131.119V113.534H106.267L110.286 145.438V420.764ZM147.465 138.655C142.273 138.655 137.333 139.828 132.644 142.172V115.042C141.352 110.687 152.74 108.51 166.808 108.51C180.876 108.51 194.357 112.111 207.253 119.312C220.148 126.346 231.285 135.892 240.664 147.95C260.593 173.908 270.558 205.142 270.558 241.651C270.558 278.83 260.174 309.562 239.408 333.845C218.808 357.794 193.101 369.768 162.286 369.768C151.066 369.768 141.185 368.093 132.644 364.744V336.86C136.328 338.702 140.515 339.623 145.204 339.623C173.34 339.623 187.407 306.128 187.407 239.139C187.407 172.15 174.093 138.655 147.465 138.655ZM449.419 360.976C438.366 366.837 421.786 369.768 399.679 369.768C377.573 369.768 360.658 363.488 348.935 350.927C337.212 338.367 331.35 319.275 331.35 293.652V157.245C331.35 148.369 327.331 142.34 319.292 139.158C315.943 137.818 312.342 136.729 308.49 135.892C304.806 135.055 301.54 133.464 298.693 131.119V113.534H405.96V300.434C405.96 313.162 407.969 322.876 411.989 329.575C416.176 336.274 422.121 339.623 429.825 339.623C437.528 339.623 444.06 337.865 449.419 334.348V360.976ZM472.028 157.245C472.028 148.369 468.008 142.34 459.97 139.158C456.62 137.818 453.02 136.729 449.168 135.892C445.483 134.887 442.05 133.296 438.868 131.119V113.534H546.386V322.792C546.386 331.333 550.405 337.195 558.444 340.377C561.793 341.716 565.31 342.889 568.995 343.894C572.847 344.731 576.196 346.238 579.043 348.415V366H472.028V157.245ZM710.426 341.13C740.404 339.79 761.254 330.831 772.977 314.251C776.326 309.394 779.425 304.37 782.272 299.178C790.31 284.273 796.674 274.392 801.364 269.535H815.18V366H694.348L710.426 341.13ZM701.382 138.404C675.759 138.906 658.174 146.443 648.628 161.013C645.949 165.367 643.437 169.889 641.092 174.578C638.915 179.267 636.654 183.957 634.309 188.646C632.132 193.335 629.285 197.69 625.768 201.709H610.696V113.534H717.46L701.382 138.404ZM744.59 113.534H814.175V139.911L667.218 366H599.14V337.865L744.59 113.534ZM951.587 341.13C981.565 339.79 1002.42 330.831 1014.14 314.251C1017.49 309.394 1020.59 304.37 1023.43 299.178C1031.47 284.273 1037.84 274.392 1042.52 269.535H1056.34V366H935.51L951.587 341.13ZM942.544 138.404C916.92 138.906 899.335 146.443 889.789 161.013C887.11 165.367 884.598 169.889 882.253 174.578C880.076 179.267 877.815 183.957 875.471 188.646C873.293 193.335 870.446 197.69 866.929 201.709H851.857V113.534H958.621L942.544 138.404ZM985.752 113.534H1055.34V139.911L908.379 366H840.301V337.865L985.752 113.534ZM1188.73 323.797C1188.73 332.505 1192.75 338.451 1200.79 341.633C1204.14 342.972 1207.74 344.145 1211.59 345.15C1215.44 346.154 1219.04 347.745 1222.39 349.923V366H1080.96V349.923C1084.14 347.745 1087.66 346.154 1091.51 345.15C1095.36 344.145 1098.96 342.972 1102.31 341.633C1110.18 338.451 1114.12 332.505 1114.12 323.797V44.2004C1114.12 35.3243 1110.18 29.2116 1102.31 25.8621C1098.96 24.5223 1095.36 23.4337 1091.51 22.5964C1087.66 21.5915 1084.14 20.0005 1080.96 17.8234V0.489921H1188.73V323.797ZM1389.45 339.623C1423.11 337.948 1445.72 319.359 1457.27 283.854L1480.38 294.405C1467.82 340.46 1437.51 365.581 1389.45 369.768V339.623ZM1381.91 108.51C1416.41 111.022 1442.28 124.755 1459.53 149.708C1474.94 171.815 1482.64 201.374 1482.64 238.385H1353.27V212.762H1405.27C1405.27 191.326 1403.6 174.411 1400.25 162.018C1397.07 149.457 1390.95 141.67 1381.91 138.655V108.51ZM1367.09 369.768C1330.75 366.921 1301.44 352.77 1279.16 327.314C1258.4 303.7 1248.01 274.643 1248.01 240.144C1248.01 203.97 1258.48 173.573 1279.42 148.955C1300.18 124.336 1326.89 110.855 1359.55 108.51V138.655C1348.5 142.507 1340.71 152.89 1336.19 169.805C1331.83 186.72 1329.66 205.812 1329.66 227.081C1329.66 248.183 1330.16 264.009 1331.16 274.56C1332.34 284.943 1334.35 294.322 1337.19 302.695C1343.06 320.28 1353.02 332.589 1367.09 339.623V369.768Z" fill="#6600FF"/>
</svg>
