<svg width="320.001" height="90.001" viewBox="0 0 320.001 90.001" xmlns="http://www.w3.org/2000/svg"><g id="svgGroup" stroke-linecap="round" fill-rule="evenodd" font-size="9pt" stroke="#3a435e" stroke-width="0.25mm" fill="#3a435e" style="stroke:#3a435e;stroke-width:0.25mm;fill:#3a435e"><path d="M 128.5 70.001 L 128.5 67.501 L 157 22.501 L 139 22.501 A 19.894 19.894 0 0 1 137.596 29.72 A 26.457 26.457 0 0 1 135.7 33.601 A 19.416 19.416 0 0 1 132.735 37.275 A 21.555 21.555 0 0 1 132.5 37.501 L 129.5 37.501 L 129.5 20.001 L 175 20.001 L 175 22.501 L 146.5 67.501 L 165.5 67.501 A 20.908 20.908 0 0 1 167.695 58.266 A 25.689 25.689 0 0 1 168.7 56.401 A 16.242 16.242 0 0 1 171.067 53.359 A 14.59 14.59 0 0 1 172 52.501 L 175 52.501 L 175 70.001 L 128.5 70.001 Z M 183 70.001 L 183 67.501 L 211.5 22.501 L 193.5 22.501 A 19.894 19.894 0 0 1 192.096 29.72 A 26.457 26.457 0 0 1 190.2 33.601 A 19.416 19.416 0 0 1 187.235 37.275 A 21.555 21.555 0 0 1 187 37.501 L 184 37.501 L 184 20.001 L 229.5 20.001 L 229.5 22.501 L 201 67.501 L 220 67.501 A 20.908 20.908 0 0 1 222.195 58.266 A 25.689 25.689 0 0 1 223.2 56.401 A 16.242 16.242 0 0 1 225.567 53.359 A 14.59 14.59 0 0 1 226.5 52.501 L 229.5 52.501 L 229.5 70.001 L 183 70.001 Z M 68 55.001 L 68 23.001 L 62 21.501 L 62 20.001 L 75 20.001 Q 82.142 20.001 83.616 25.668 A 13.26 13.26 0 0 1 84 29.001 L 84 55.001 Q 84 61.301 86.25 64.651 Q 88.5 68.001 91.5 68.001 Q 94.821 68.001 97.577 64.78 A 15.512 15.512 0 0 0 98.2 64.001 A 17.407 17.407 0 0 0 99.03 62.75 Q 99.432 62.088 99.847 61.301 A 38.872 38.872 0 0 0 100.5 60.001 L 100.5 23.001 L 94.5 21.501 L 94.5 20.001 L 122.5 20.001 L 122.5 21.501 L 116.5 23.001 L 116.5 70.501 L 115.5 70.501 A 21.278 21.278 0 0 1 111.183 70.091 Q 106.983 69.22 104.4 66.501 Q 102.7 64.701 102 62.501 Q 100.6 65.001 98.7 67.001 A 15.162 15.162 0 0 1 87.722 71.5 A 19.787 19.787 0 0 1 87.5 71.501 A 22.941 22.941 0 0 1 81.564 70.758 A 19.603 19.603 0 0 1 77.45 69.151 A 19.781 19.781 0 0 1 72.956 65.95 A 17.104 17.104 0 0 1 70.5 63.001 A 15.24 15.24 0 0 1 68.445 58.474 A 13.663 13.663 0 0 1 68 55.001 Z M 0 90.001 L 0 88.501 L 6 87.001 L 6 23.001 L 0 21.501 L 0 20.001 L 9 20.001 A 14.748 14.748 0 0 1 13.035 20.525 A 10.917 10.917 0 0 1 18.3 23.801 A 11.79 11.79 0 0 1 19.636 25.71 A 15.555 15.555 0 0 1 20.5 27.501 A 16.041 16.041 0 0 1 23.769 23.031 A 15.351 15.351 0 0 1 23.8 23.001 A 15.162 15.162 0 0 1 34.778 18.503 A 19.787 19.787 0 0 1 35 18.501 A 19.422 19.422 0 0 1 41.847 19.685 A 17.957 17.957 0 0 1 45.5 21.551 A 18.94 18.94 0 0 1 50.719 26.803 A 25.372 25.372 0 0 1 52.8 30.551 Q 55.5 36.501 55.5 45.001 A 44.349 44.349 0 0 1 54.919 52.42 Q 54.221 56.526 52.685 59.794 A 20.938 20.938 0 0 1 49.55 64.651 Q 43.6 71.501 33.5 71.501 A 19.484 19.484 0 0 1 29.132 71.032 A 15.308 15.308 0 0 1 25.1 69.501 Q 23.647 68.823 22.1 67.582 A 20.89 20.89 0 0 1 22 67.501 L 22 87.001 L 28 88.501 L 28 90.001 L 0 90.001 Z M 319.5 42.801 L 319 44.501 A 100.712 100.712 0 0 1 313.352 45.509 A 123.5 123.5 0 0 1 309.7 46.001 Q 299.2 47.501 288.5 47.501 Q 288.5 56.837 290.573 61.866 A 13.483 13.483 0 0 0 291.7 64.051 A 11.683 11.683 0 0 0 294.374 67.019 Q 296.911 68.966 300.376 69.001 A 12.583 12.583 0 0 0 300.5 69.001 Q 304.4 69.001 307.75 67.151 A 14.702 14.702 0 0 0 312.13 63.528 A 14.099 14.099 0 0 0 313.05 62.251 Q 315 59.201 315 56.001 L 317.5 56.001 A 13.272 13.272 0 0 1 315.563 62.866 A 16.307 16.307 0 0 1 315.1 63.601 A 16.361 16.361 0 0 1 310.068 68.418 A 20.205 20.205 0 0 1 308.4 69.351 A 20.177 20.177 0 0 1 302.196 71.247 A 26.025 26.025 0 0 1 298.5 71.501 A 37.336 37.336 0 0 1 290.458 70.687 Q 285.192 69.526 281.265 66.707 A 21.908 21.908 0 0 1 278.6 64.451 A 23.274 23.274 0 0 1 272.344 52.915 A 35.011 35.011 0 0 1 271.5 45.001 A 35.664 35.664 0 0 1 272.17 37.925 A 26.785 26.785 0 0 1 274.6 30.901 A 22.513 22.513 0 0 1 280.303 23.738 A 21.683 21.683 0 0 1 283.25 21.701 A 23.976 23.976 0 0 1 292.716 18.677 A 30.006 30.006 0 0 1 296 18.501 A 32.52 32.52 0 0 1 302.564 19.135 A 25 25 0 0 1 308.65 21.201 A 22.707 22.707 0 0 1 313.735 24.592 A 19.072 19.072 0 0 1 317.05 28.451 Q 320 33.001 320 38.501 A 21.024 21.024 0 0 1 319.917 40.417 Q 319.831 41.363 319.653 42.181 A 11.221 11.221 0 0 1 319.5 42.801 Z M 237.5 70.001 L 237.5 68.501 L 243.5 67.001 L 243.5 3.001 L 237.5 1.501 L 237.5 0.001 L 250.5 0.001 Q 257.642 0.001 259.116 5.668 A 13.26 13.26 0 0 1 259.5 9.001 L 259.5 67.001 L 265.5 68.501 L 265.5 70.001 L 237.5 70.001 Z M 22 30.001 L 22 64.501 Q 23.4 65.901 24.2 66.501 Q 26.473 68.185 28.675 68.451 A 6.866 6.866 0 0 0 29.5 68.501 Q 33.8 68.501 36.15 63.501 Q 38.5 58.501 38.5 45.001 A 122.12 122.12 0 0 0 38.367 39.063 Q 38.105 33.713 37.33 30.239 A 18.493 18.493 0 0 0 36.35 27.051 A 15.645 15.645 0 0 0 35.322 25.022 Q 33.926 22.739 32.172 22.182 A 3.845 3.845 0 0 0 31 22.001 Q 27.47 22.001 24.63 25.453 A 15.524 15.524 0 0 0 24.2 26.001 A 15.081 15.081 0 0 0 22.731 28.361 A 18.824 18.824 0 0 0 22 30.001 Z M 288.5 45.001 A 136.604 136.604 0 0 0 292.266 44.953 Q 296.135 44.846 298.878 44.504 A 41.823 41.823 0 0 0 298.9 44.501 A 22.757 22.757 0 0 0 301.103 44.259 A 27.73 27.73 0 0 0 302.5 44.001 A 17.698 17.698 0 0 1 302.558 43.725 Q 302.657 43.269 302.864 42.384 A 290.018 290.018 0 0 1 303 41.801 A 26.051 26.051 0 0 0 303.469 37.883 A 30.143 30.143 0 0 0 303.5 36.501 Q 303.5 28.201 301.3 24.351 A 11.307 11.307 0 0 0 300.087 22.6 Q 299.328 21.715 298.482 21.203 A 4.714 4.714 0 0 0 296 20.501 Q 289.499 20.501 288.633 38.907 A 130.104 130.104 0 0 0 288.5 45.001 Z" vector-effect="non-scaling-stroke"/></g></svg>
